# xmcd
#
# Track frame offsets: 
#        150
#        18731
#        36797
#        53819
#        66981
#        85424
#        101052
#        122155
#        141072
#        155252
#        170515
#        194854
#        211184
#        228817
#        264349
#        282621
#        298620
#
# Disc length: 4521 seconds
#
# Revision: 2
# Processed by: cddbd v1.5.2PL0 Copyright (c) Steve Scherf et al.
# Submitted via: ExactAudioCopy v1.1
#
DISCID=0211a711
DTITLE=Various Artist - Classic Rock - The New Generation
DYEAR=2004
DGENRE=Classic Rock
TTITLE0=Velvet Revolver - Set Me Free
TTITLE1=HIM - Buried Alive By Love
TTITLE2=Powderfinger - Stumblin'
TTITLE3=The Datsuns - That Sure Ain't Right
TTITLE4=Fountains Of Wayne - No Better Place
TTITLE5=Soil - Redefine
TTITLE6=Finger Eleven - One Thing
TTITLE7=Dirty Americans - No Rest
TTITLE8=Boy Sets Fire - Release The Dogs
TTITLE9=Jesse Malin - Hotel Columbia
TTITLE10=Silvertide - Foxhole Jesus Christ
TTITLE11=Lacuna Coil - Unspoken
TTITLE12=The Quill - American Powder
TTITLE13=Dragonforce - My Spirit Will Go On
TTITLE14=The Fire Theft - It's Over
TTITLE15=Stimulator - 78 Stimulator
TTITLE16=Karnataka - Talk To Me
EXTD=
EXTT0=
EXTT1=
EXTT2=
EXTT3=
EXTT4=
EXTT5=
EXTT6=
EXTT7=
EXTT8=
EXTT9=
EXTT10=
EXTT11=
EXTT12=
EXTT13=
EXTT14=
EXTT15=
EXTT16=
PLAYORDER=
